<svg width="256" height="256" viewBox="0 0 64 64" fill="none" xmlns="http://www.w3.org/2000/svg">
 
  <defs>
    <linearGradient id="cool-gradient" x1="0" y1="0" x2="1" y2="1">
      <stop offset="0%" stop-color="#09a197" /> 
      <stop offset="100%" stop-color="#09a197" />
    </linearGradient>
  </defs>

  <!-- Main rounded square background -->
  <rect width="64" height="64" rx="12" fill="url(#cool-gradient)"/>

  <!-- QR Code Pattern Elements (cutouts) -->
  <g fill="#FFFFFF">
    <!-- Top-Left Finder Pattern -->
    <rect x="10" y="10" width="18" height="18" rx="4" />
    <rect x="14" y="14" width="10" height="10" rx="2" fill="url(#cool-gradient)" />
    
    <!-- Top-Right Finder Pattern -->
    <rect x="36" y="10" width="18" height="18" rx="4" />
    <rect x="40" y="14" width="10" height="10" rx="2" fill="url(#cool-gradient)" />
    
    <!-- Bottom-Left Finder Pattern -->
    <rect x="10" y="36" width="18" height="18" rx="4" />
    <rect x="14" y="40" width="10" height="10" rx="2" fill="url(#cool-gradient)" />
    
    <!-- Data "pixel" modules -->
    <rect x="36" y="36" width="5" height="5" rx="1.5" />
    <rect x="42.5" y="36" width="5" height="5" rx="1.5" />
    <rect x="49" y="36" width="5" height="5" rx="1.5" />
    
    <rect x="36" y="42.5" width="5" height="5" rx="1.5" />
    
    <rect x="36" y="49" width="5" height="5" rx="1.5" />
    <rect x="49" y="42.5" width="5" height="5" rx="1.5" />
    <rect x="42.5" y="49" width="11.5" height="5" rx="1.5" />
  </g>
</svg>